<svg width="213" height="291" viewBox="8 0 198 275" fill="none"
    xmlns="http://www.w3.org/2000/svg">
    <g filter="url(#filter0_dd_361_3339)">
        <path d="M11 30V243V249.715C11 253.022 12.6346 256.114 15.3666 257.977L30.4513 268.262C32.1118 269.394 34.075 270 36.0847 270H175.632C177.506 270 179.343 269.473 180.932 268.48L197.8 257.938C200.724 256.11 202.5 252.905 202.5 249.458V243V30V23.285C202.5 19.9784 200.865 16.8855 198.133 15.0228L183.049 4.73773C181.388 3.60556 179.425 3 177.415 3H37.868C35.9938 3 34.1573 3.52669 32.568 4.52002L15.7 15.0625C12.7762 16.8899 11 20.0946 11 23.5425V30Z" fill="#F4F4F4"/>
        <path d="M11 243V23.5425C11 20.0946 12.7762 16.8899 15.7 15.0625L32.568 4.52002C34.1573 3.52669 35.9938 3 37.868 3H177.415C179.425 3 181.388 3.60556 183.049 4.73773L198.133 15.0228C200.865 16.8855 202.5 19.9784 202.5 23.285V243M202.5 30V249.458C202.5 252.905 200.724 256.11 197.8 257.938L180.932 268.48C179.343 269.473 177.506 270 175.632 270H36.0847C34.075 270 32.1118 269.394 30.4513 268.262L15.3666 257.977C12.6346 256.114 11 253.022 11 249.715V30" stroke="#E7E7E7"/>
    </g>
    <defs>
        <filter id="filter0_dd_361_3339" x="0.5" y="0.5" width="212.5" height="290" filterUnits="userSpaceOnUse" color-interpolation-filters="sRGB">
            <feFlood flood-opacity="0" result="BackgroundImageFix"/>
            <feColorMatrix in="SourceAlpha" type="matrix" values="0 0 0 0 0 0 0 0 0 0 0 0 0 0 0 0 0 0 127 0" result="hardAlpha"/>
            <feOffset dy="2"/>
            <feGaussianBlur stdDeviation="2"/>
            <feComposite in2="hardAlpha" operator="out"/>
            <feColorMatrix type="matrix" values="0 0 0 0 0 0 0 0 0 0 0 0 0 0 0 0 0 0 0.05 0"/>
            <feBlend mode="normal" in2="BackgroundImageFix" result="effect1_dropShadow_361_3339"/>
            <feColorMatrix in="SourceAlpha" type="matrix" values="0 0 0 0 0 0 0 0 0 0 0 0 0 0 0 0 0 0 127 0" result="hardAlpha"/>
            <feOffset dy="10"/>
            <feGaussianBlur stdDeviation="5"/>
            <feComposite in2="hardAlpha" operator="out"/>
            <feColorMatrix type="matrix" values="0 0 0 0 0 0 0 0 0 0 0 0 0 0 0 0 0 0 0.04 0"/>
            <feBlend mode="normal" in2="effect1_dropShadow_361_3339" result="effect2_dropShadow_361_3339"/>
            <feBlend mode="normal" in="SourceGraphic" in2="effect2_dropShadow_361_3339" result="shape"/>
        </filter>
    </defs>
</svg>
