<svg viewBox="0 0 23 22" fill="currentColor" xmlns="http://www.w3.org/2000/svg">
    <g clip-path="url(#clip0_445_3265)">
        <path d="M22.756 11.0045C22.754 11.3697 22.6227 11.7193 22.3906 11.978C22.1586 12.2367 21.8442 12.3836 21.5154 12.3872H20.2748L20.3019 19.2857C20.3013 19.4023 20.2949 19.5188 20.2827 19.6347V20.328C20.2827 20.7848 20.1193 21.2229 19.8285 21.5459C19.5377 21.8688 19.1434 22.0503 18.7321 22.0503H18.1108C18.068 22.0503 18.0253 22.0503 17.9825 22.0463C17.9283 22.0503 17.8742 22.0503 17.8193 22.0503H15.6296C15.2184 22.0503 14.824 21.8688 14.5332 21.5459C14.2424 21.2229 14.079 20.7848 14.079 20.328V16.5392C14.0792 16.3582 14.0473 16.179 13.985 16.0117C13.9227 15.8444 13.8313 15.6924 13.7161 15.5644C13.6009 15.4364 13.464 15.3349 13.3134 15.2658C13.1628 15.1966 13.0014 15.1611 12.8385 15.1613H10.3573C10.1943 15.1611 10.0329 15.1966 9.88232 15.2658C9.73172 15.3349 9.59489 15.4364 9.47965 15.5644C9.36441 15.6924 9.27304 15.8444 9.21076 16.0117C9.14848 16.179 9.11652 16.3582 9.11671 16.5392V20.3288C9.11671 20.7856 8.95335 21.2237 8.66256 21.5466C8.37178 21.8696 7.97739 22.0511 7.56616 22.0511H5.39852C5.34009 22.0511 5.28237 22.0471 5.22394 22.0424C5.17763 22.0463 5.1306 22.0511 5.08143 22.0511H4.46434C4.05311 22.0511 3.65872 21.8696 3.36794 21.5466C3.07715 21.2237 2.91379 20.7856 2.91379 20.3288V15.5056C2.91305 15.4654 2.91424 15.4253 2.91735 15.3853V12.388H1.6725C1.5086 12.3902 1.34596 12.3559 1.1942 12.2871C1.04245 12.2183 0.904656 12.1164 0.788986 11.9874C0.673316 11.8584 0.582117 11.705 0.520784 11.5361C0.459451 11.3673 0.429231 11.1865 0.431911 11.0045C0.429561 10.8126 0.462761 10.6223 0.529446 10.4453C0.596132 10.2682 0.694878 10.1084 0.819549 9.97555L10.7606 0.347254C10.8732 0.226866 11.0073 0.134029 11.1542 0.0747283C11.3011 0.015428 11.4576 -0.00901916 11.6136 0.0029628C11.9081 -0.00297063 12.1956 0.103466 12.428 0.304515L22.3292 9.97555C22.4723 10.0935 22.5864 10.2496 22.661 10.4294C22.7356 10.6092 22.7683 10.807 22.756 11.0045Z"
        />
    </g>
    <defs>
        <clipPath id="clip0_445_3265">
            <rect width="21.8642" height="21.9385" fill="white"
                  transform="translate(0.431747)"/>
        </clipPath>
    </defs>
</svg>