<svg viewBox="0 0 51 48" fill="currentColor" xmlns="http://www.w3.org/2000/svg">
    <path fill-rule="evenodd" clip-rule="evenodd"
          d="M45.2186 5.78139C42.8887 7.64243 35.6137 9 27 9C18.7056 9 11.6526 7.74123 9.06076 5.98628C10.7767 8.69383 12 15.7374 12 24C12 32.2626 10.7767 39.3061 9.06078 42.0137C11.6527 40.2588 18.7057 39 27 39C35.6137 39 42.8887 40.3576 45.2186 42.2186C43.3576 39.8887 42 32.6137 42 24C42 15.3863 43.3576 8.11132 45.2186 5.78139ZM45.7027 5.29732C45.9615 5.10196 46.2279 5 46.5 5C47.2895 5 48.0316 5.85852 48.6766 7.36653C47.8593 4.89639 45.8708 2.95958 43.3689 2.21384C45.0406 2.88384 46 3.66539 46 4.5C46 4.77209 45.898 5.03854 45.7027 5.29732ZM48.6767 40.6334C48.0316 42.1414 47.2895 43 46.5 43C46.2279 43 45.9615 42.898 45.7027 42.7027C45.898 42.9615 46 43.2279 46 43.5C46 44.3346 45.0406 45.1162 43.3687 45.7862C45.8707 45.0405 47.8593 43.1036 48.6767 40.6334ZM7.99999 4.5C7.99999 4.65897 8.0348 4.81602 8.1027 4.97073C7.90555 4.85814 7.70436 4.80001 7.49999 4.80001C6.92277 4.80001 6.37094 5.26371 5.86383 6.10856C6.8608 4.24798 8.57215 2.82751 10.6312 2.21381C8.95938 2.88381 7.99999 3.66537 7.99999 4.5ZM10.6314 45.7863C8.57224 45.1726 6.86084 43.7521 5.86384 41.8915C6.37095 42.7363 6.92278 43.2 7.49999 43.2C7.70436 43.2 7.90554 43.1419 8.10269 43.0293C8.0348 43.184 7.99999 43.341 7.99999 43.5C7.99999 44.3347 8.95944 45.1162 10.6314 45.7863Z"
          fill="#E43D29" fill-opacity="0.3"/>
    <ellipse cx="27" cy="4.5" rx="19" ry="4.5" fill="#E43D29" fill-opacity="0.3"/>
    <ellipse cx="27" cy="43.5" rx="19" ry="4.5" fill="#E43D29" fill-opacity="0.3"/>
    <ellipse cx="7.5" cy="24" rx="19.2" ry="4.5" transform="rotate(-90 7.5 24)" fill="#E43D29" fill-opacity="0.3"/>
    <ellipse cx="46.5" cy="24" rx="19" ry="4.5" transform="rotate(-90 46.5 24)" fill="#E43D29" fill-opacity="0.3"/>
    <rect x="1.91998" y="1.88159" width="44.16" height="44.2368" rx="8" fill="#E43D29"/>
    <ellipse cx="24" cy="4.5" rx="19" ry="4.5" fill="#E43D29"/>
    <ellipse cx="24" cy="43.5" rx="19" ry="4.5" fill="#E43D29"/>
    <ellipse cx="4.5" cy="24" rx="19.2" ry="4.5" transform="rotate(-90 4.5 24)" fill="#E43D29"/>
    <ellipse cx="43.5" cy="24" rx="19" ry="4.5" transform="rotate(-90 43.5 24)" fill="#E43D29"/>
    <path d="M24.2289 14.74V18.49H20.5089V34H15.2589V18.49H11.5689V14.74H24.2289ZM37.1182 18.49H30.8182V23.17H36.2782V26.62H30.8182V34H25.5682V14.74H37.1182V18.49Z"
          fill="white"/>
</svg>
